<svg xmlns="http://www.w3.org/2000/svg" width="151" viewBox="0 0 151 18"><g fill="none" transform="translate(.962 .032)"><path fill="#373378" d="M2.53657584,13.885404 C3.56999563,14.1296669 4.64099432,14.2424036 5.73078245,14.2424036 C7.046044,14.2424036 8.15462159,14.0545091 9.07530467,13.6599306 C9.99598776,13.2653522 10.6911974,12.7392476 11.1609337,12.0628273 C11.6118805,11.3864071 11.8561434,10.6348291 11.8561434,9.80809325 C11.8561434,8.86862072 11.5930911,8.11704269 11.0857759,7.55335917 C10.5784607,7.0084651 9.97719831,6.61388664 9.30077808,6.36962378 C8.60556841,6.12536092 7.76004313,5.89988751 6.76420224,5.711993 C5.97504531,5.5616774 5.43015124,5.43015124 5.09194113,5.29862509 C4.75373102,5.16709893 4.58462596,4.96041498 4.58462596,4.69736267 C4.58462596,4.1524686 5.14830948,3.87062684 6.29446597,3.87062684 C7.44062247,3.87062684 8.66193676,4.20883695 9.95840886,4.84767827 L11.2924599,1.63468221 C10.6160396,1.25889319 9.84567215,0.977051435 8.98135742,0.789156928 C8.11704269,0.601262421 7.23393851,0.488525717 6.33204488,0.488525717 C5.01678333,0.488525717 3.88941629,0.695209675 2.96873321,1.07099869 C2.04805012,1.46557715 1.35284045,1.99168177 0.901893632,2.668102 C0.432157365,3.34452222 0.206683957,4.09610025 0.206683957,4.92283608 C0.206683957,5.88109806 0.450946816,6.63267609 0.958261984,7.19635961 C1.4467877,7.76004313 2.04805012,8.15462159 2.72447035,8.39888445 C3.40089057,8.64314731 4.24641585,8.86862072 5.26104619,9.07530467 C6.05020312,9.24440973 6.61388664,9.39472533 6.95209675,9.52625149 C7.29030686,9.67656709 7.47820137,9.88325105 7.47820137,10.1463034 C7.47820137,10.3905662 7.34667521,10.5784607 7.0836229,10.6911974 C6.82057059,10.8039341 6.36962378,10.8603025 5.76836136,10.8603025 C5.05436223,10.8603025 4.3027842,10.7663552 3.53241673,10.5408818 C2.7432598,10.3154084 2.04805012,10.0335667 1.42799825,9.65777764 L0,12.8895632 C0.657630773,13.3029311 1.50315605,13.6411412 2.53657584,13.885404 L2.53657584,13.885404 Z"/><path fill="#493179" d="M23.2096689,4.62220486 C22.4393015,3.87062684 21.4246711,3.47604837 20.1657779,3.47604837 C19.0196214,3.47604837 18.0613595,3.81425849 17.2722025,4.49067871 L17.2722025,0 L13.0257867,0 L13.0257867,13.9417724 L17.2722025,13.9417724 L17.2722025,9.11288357 C17.2722025,8.39888445 17.4037287,7.89156928 17.7043599,7.55335917 C18.0049911,7.21514906 18.3807801,7.046044 18.8693058,7.046044 C19.6960417,7.046044 20.128199,7.64730642 20.128199,8.81225236 L20.128199,13.9417724 L24.3746149,13.9417724 L24.3746149,8.07946379 C24.3746149,6.53872883 23.9800364,5.39257234 23.2096689,4.62220486 Z"/><path fill="#5A2F7A" d="M34.9375143,4.69736267 C33.9792523,3.88941629 32.6076224,3.47604837 30.8038351,3.47604837 C29.9770993,3.47604837 29.131574,3.58878508 28.3048382,3.79546904 C27.4781024,4.00215299 26.7641032,4.28399475 26.1816303,4.64099432 L27.5344707,7.44062247 C27.8726808,7.19635961 28.2672593,7.0084651 28.755785,6.85814949 C29.2255213,6.70783389 29.6952576,6.63267609 30.1649938,6.63267609 C31.3111503,6.63267609 31.9499916,7.046044 32.1003072,7.83520093 L30.3904672,7.83520093 C28.8121534,7.83520093 27.628418,8.09825324 26.8580505,8.62435786 C26.0688936,9.15046248 25.6931046,9.92082995 25.6931046,10.9354603 C25.6931046,11.5367227 25.8246307,12.0816168 26.1252619,12.5701425 C26.4258931,13.0586682 26.8580505,13.4344572 27.421734,13.716299 C27.9854175,13.9981407 28.6806272,14.1296669 29.507363,14.1296669 C30.9541507,14.1296669 31.9312022,13.6223517 32.4197279,12.5889319 L32.4197279,13.9417724 L36.3655125,13.9417724 L36.3655125,8.4176739 C36.3655125,6.74541279 35.8769868,5.50530905 34.9375143,4.69736267 L34.9375143,4.69736267 Z M31.5929921,11.3300388 C31.3487292,11.4991438 31.0856769,11.5743016 30.7850457,11.5743016 C30.465625,11.5743016 30.2213622,11.4991438 30.0334677,11.3488282 C29.8455732,11.1985126 29.7704154,10.9918286 29.7704154,10.7475658 C29.7704154,10.1838823 30.2025727,9.88325105 31.0668875,9.88325105 L32.1190967,9.88325105 L32.1190967,10.5972502 C32.00636,10.9354603 31.8184655,11.1797231 31.5929921,11.3300388 Z"/><path fill="#6C2C7C" d="M45.5661794,3.47604837 C44.1006022,3.47604837 42.9920246,3.90820574 42.2404466,4.77252047 L42.2404466,3.66394288 L38.2007147,3.66394288 L38.2007147,13.9417724 L42.4471306,13.9417724 L42.4471306,9.37593588 C42.4471306,7.91035873 43.1611297,7.15878071 44.6267069,7.15878071 C44.9085486,7.15878071 45.2279693,7.19635961 45.5661794,7.23393851 L45.5661794,3.47604837 Z"/><path fill="#7D2A7D" d="M57.5203802,9.7893038 C57.5579591,9.18804138 57.5767486,8.86862072 57.5767486,8.79346291 C57.5767486,7.68488532 57.3136962,6.72662334 56.8063811,5.91867696 C56.2990659,5.12952003 55.6226457,4.50946816 54.758331,4.09610025 C53.8940162,3.68273233 52.9545437,3.47604837 51.9211239,3.47604837 C50.8125463,3.47604837 49.8167054,3.70152178 48.9336012,4.1524686 C48.0504971,4.60341541 47.3552874,5.24225674 46.8479722,6.05020312 C46.3406571,6.85814949 46.0963942,7.77883258 46.0963942,8.79346291 C46.0963942,9.80809325 46.3406571,10.7287763 46.8667617,11.5367227 C47.3740768,12.3634585 48.1068654,13.0022999 49.046338,13.4532467 C49.9858105,13.9041935 51.0755986,14.1296669 52.3157024,14.1296669 C54.3073841,14.1296669 55.7917507,13.5847728 56.8063811,12.4761952 L54.5892259,10.2402506 C54.2134369,10.5220924 53.8752268,10.7099869 53.5745956,10.8227236 C53.2739644,10.9354603 52.8981753,10.9918286 52.4472285,10.9918286 C51.9211239,10.9918286 51.4701771,10.8978814 51.131967,10.6911974 C50.7749674,10.4845135 50.5307046,10.1838823 50.3803889,9.7893038 L57.5203802,9.7893038 Z M50.8689147,6.72662334 C51.1507564,6.50114993 51.507756,6.36962378 51.9587028,6.36962378 C52.3908602,6.36962378 52.7478597,6.50114993 53.0484909,6.74541279 C53.3303327,6.98967565 53.5182272,7.32788576 53.6121745,7.74125368 L50.3052311,7.74125368 C50.3803889,7.30909631 50.5682835,6.9708862 50.8689147,6.72662334 Z"/><path fill="#8F287E" d="M60.7398351,13.885404 C61.7732549,14.1296669 62.8442536,14.2424036 63.9340418,14.2424036 C65.2493033,14.2424036 66.3578809,14.0545091 67.278564,13.6599306 C68.1992471,13.2653522 68.8944567,12.7392476 69.364193,12.0628273 C69.8151398,11.3864071 70.0594027,10.6348291 70.0594027,9.80809325 C70.0594027,8.86862072 69.7963504,8.11704269 69.2890352,7.55335917 C68.78172,7.0084651 68.1804576,6.61388664 67.5040374,6.36962378 C66.8088277,6.12536092 65.9633024,5.89988751 64.9674615,5.711993 C64.1783046,5.5616774 63.6334105,5.43015124 63.2952004,5.29862509 C62.9569903,5.16709893 62.7878853,4.96041498 62.7878853,4.69736267 C62.7878853,4.1524686 63.3515688,3.87062684 64.4977253,3.87062684 C65.6438818,3.87062684 66.8651961,4.20883695 68.1616682,4.84767827 L69.4957192,1.63468221 C68.8192989,1.25889319 68.0489315,0.977051435 67.1846167,0.789156928 C66.320302,0.601262421 65.4371978,0.488525717 64.5353042,0.488525717 C63.2200426,0.488525717 62.0926756,0.695209675 61.1719925,1.07099869 C60.2513094,1.46557715 59.5560997,1.99168177 59.1051529,2.668102 C58.6354167,3.34452222 58.4099433,4.09610025 58.4099433,4.92283608 C58.4099433,5.88109806 58.6542061,6.63267609 59.1615213,7.19635961 C59.650047,7.76004313 60.2513094,8.15462159 60.9277296,8.39888445 C61.6041499,8.64314731 62.4496752,8.86862072 63.4643055,9.07530467 C64.2534624,9.24440973 64.8171459,9.39472533 65.155356,9.52625149 C65.4935662,9.67656709 65.6814607,9.88325105 65.6814607,10.1463034 C65.6814607,10.3905662 65.5499345,10.5784607 65.2868822,10.6911974 C65.0238299,10.8039341 64.5728831,10.8603025 63.9716207,10.8603025 C63.2576215,10.8603025 62.5060435,10.7663552 61.735676,10.5408818 C60.9465191,10.3154084 60.2513094,10.0335667 59.6312576,9.65777764 L58.2032593,12.8895632 C58.8608901,13.3029311 59.7064154,13.6411412 60.7398351,13.885404 L60.7398351,13.885404 Z"/><path fill="#A1267F" d="M81.4129282,4.62220486 C80.6425608,3.87062684 79.6279304,3.47604837 78.3690372,3.47604837 C77.7489854,3.47604837 77.1853018,3.58878508 76.6591972,3.77667958 C76.1330926,3.98336354 75.6633563,4.28399475 75.2687779,4.67857322 L75.2687779,3.66394288 L71.229046,3.66394288 L71.229046,13.9417724 L75.4754618,13.9417724 L75.4754618,9.11288357 C75.4754618,8.39888445 75.606988,7.89156928 75.9076192,7.55335917 C76.2082504,7.21514906 76.5840394,7.046044 77.0725651,7.046044 C77.899301,7.046044 78.3314583,7.64730642 78.3314583,8.81225236 L78.3314583,13.9417724 L82.5778742,13.9417724 L82.5778742,8.07946379 C82.5778742,6.53872883 82.1832957,5.39257234 81.4129282,4.62220486 Z"/><path fill="#B22480" d="M93.1407736,4.69736267 C92.1825116,3.88941629 90.8108817,3.47604837 89.0070944,3.47604837 C88.1803586,3.47604837 87.3348333,3.58878508 86.5080975,3.79546904 C85.6813617,4.00215299 84.9673626,4.28399475 84.3848896,4.64099432 L85.73773,7.44062247 C86.0759401,7.19635961 86.4705186,7.0084651 86.9590443,6.85814949 C87.4287806,6.70783389 87.8985169,6.63267609 88.3682531,6.63267609 C89.5144096,6.63267609 90.1532509,7.046044 90.3035665,7.83520093 L88.5937265,7.83520093 C87.0154127,7.83520093 85.8316773,8.09825324 85.0613098,8.62435786 C84.2721529,9.15046248 83.8963639,9.92082995 83.8963639,10.9354603 C83.8963639,11.5367227 84.02789,12.0816168 84.3285212,12.5701425 C84.6291524,13.0586682 85.0613098,13.4344572 85.6249933,13.716299 C86.1886768,13.9981407 86.8838865,14.1296669 87.7106223,14.1296669 C89.15741,14.1296669 90.1344615,13.6223517 90.6229872,12.5889319 L90.6229872,13.9417724 L94.5687718,13.9417724 L94.5687718,8.4176739 C94.5687718,6.74541279 94.0802461,5.50530905 93.1407736,4.69736267 L93.1407736,4.69736267 Z M89.7962514,11.3300388 C89.5519885,11.4991438 89.2889362,11.5743016 88.988305,11.5743016 C88.6688843,11.5743016 88.4246215,11.4991438 88.236727,11.3488282 C88.0488325,11.1985126 87.9736747,10.9918286 87.9736747,10.7475658 C87.9736747,10.1838823 88.405832,9.88325105 89.2701468,9.88325105 L90.322356,9.88325105 L90.322356,10.5972502 C90.2096193,10.9354603 90.0217248,11.1797231 89.7962514,11.3300388 Z"/><path fill="#C42182" d="M105.742331,4.13367915 C104.990753,3.70152178 104.164017,3.47604837 103.262124,3.47604837 C101.984441,3.47604837 101.044968,3.83304794 100.443706,4.50946816 L100.443706,3.66394288 L96.403974,3.66394288 L96.403974,17.5869258 L100.65039,17.5869258 L100.65039,13.2465627 C101.251652,13.8478251 102.115967,14.1296669 103.262124,14.1296669 C104.164017,14.1296669 104.990753,13.9229829 105.742331,13.4908256 C106.493909,13.0586682 107.095171,12.4386163 107.546118,11.63067 C107.997065,10.8227236 108.222538,9.88325105 108.222538,8.81225236 C108.222538,7.76004313 107.997065,6.82057059 107.546118,5.99383476 C107.095171,5.18588838 106.493909,4.56583651 105.742331,4.13367915 L105.742331,4.13367915 Z M103.450018,10.296619 C103.130597,10.6536185 102.736019,10.8227236 102.247493,10.8227236 C101.758967,10.8227236 101.3456,10.6536185 101.044968,10.296619 C100.725548,9.95840886 100.575232,9.45109369 100.575232,8.81225236 C100.575232,8.17341104 100.725548,7.68488532 101.044968,7.32788576 C101.3456,6.9708862 101.758967,6.78299169 102.247493,6.78299169 C102.736019,6.78299169 103.130597,6.9708862 103.450018,7.32788576 C103.750649,7.68488532 103.919754,8.17341104 103.919754,8.81225236 C103.919754,9.45109369 103.750649,9.95840886 103.450018,10.296619 Z"/><polygon fill="#D51F83" points="136.726 .789 132.517 .789 130.093 8.361 127.801 .789 123.724 .789 121.3 8.267 119.008 .789 114.442 .789 118.651 13.942 123.404 13.942 125.64 6.915 127.764 13.942 132.517 13.942"/><path fill="#E71D84" d="M147.181582,1.39041935 C146.279689,0.995840886 145.20869,0.789156928 144.006165,0.789156928 L137.67412,0.789156928 L137.67412,13.9417724 L142.108431,13.9417724 L142.108431,10.7099869 L144.006165,10.7099869 C145.20869,10.7099869 146.279689,10.5220924 147.181582,10.1087245 C148.083476,9.714146 148.778686,9.13167303 149.267211,8.380095 C149.755737,7.62851697 150,6.76420224 150,5.7495719 C150,4.75373102 149.755737,3.87062684 149.267211,3.11904881 C148.778686,2.36747078 148.083476,1.80378726 147.181582,1.39041935 Z M145.077164,6.8957284 C144.776533,7.15878071 144.325586,7.29030686 143.724323,7.29030686 L142.108431,7.29030686 L142.108431,4.20883695 L143.724323,4.20883695 C144.325586,4.20883695 144.776533,4.35915256 145.077164,4.62220486 C145.377795,4.88525717 145.528111,5.26104619 145.528111,5.7495719 C145.528111,6.23809762 145.377795,6.63267609 145.077164,6.8957284 L145.077164,6.8957284 Z"/></g></svg>